<?xml version="1.0" standalone="no"?>
<!DOCTYPE svg PUBLIC "-//W3C//DTD SVG 20010904//EN"
 "http://www.w3.org/TR/2001/REC-SVG-20010904/DTD/svg10.dtd">
<svg version="1.0" xmlns="http://www.w3.org/2000/svg"
 width="807.000000pt" height="803.000000pt" viewBox="0 0 807.000000 803.000000"
 preserveAspectRatio="xMidYMid meet">

<g transform="translate(0.000000,803.000000) scale(0.100000,-0.100000)"
fill="#000000" stroke="none">
<path d="M0 4015 l0 -4015 4035 0 4035 0 0 4015 0 4015 -4035 0 -4035 0 0
-4015z m2570 3719 l0 -64 45 0 c31 0 45 -4 45 -14 0 -9 -16 -14 -55 -15 l-55
-1 0 86 c0 54 4 83 10 79 6 -3 10 -35 10 -71z m493 46 c10 -17 27 -30 37 -30
12 0 26 12 35 30 9 17 20 30 25 30 15 0 12 -9 -20 -57 -17 -24 -30 -57 -30
-74 0 -16 -4 -29 -10 -29 -5 0 -10 12 -10 28 0 15 -16 51 -35 80 -22 32 -30
52 -22 52 7 0 21 -13 30 -30z m903 -30 c15 -33 30 -60 33 -60 4 0 15 24 25 53
20 56 32 74 42 64 7 -6 -56 -167 -66 -167 -5 0 -51 95 -78 162 -2 4 1 8 7 8 5
0 22 -27 37 -60z m332 41 c4 -11 -2 -12 -24 -6 -49 13 -59 11 -59 -9 0 -14 10
-22 35 -29 19 -5 41 -13 48 -19 29 -24 0 -88 -40 -88 -21 0 -78 27 -78 36 0 4
12 3 28 -1 38 -11 64 -8 73 7 11 17 -9 38 -37 38 -24 0 -68 35 -61 48 2 4 7
15 10 25 6 15 16 18 54 15 29 -2 48 -8 51 -17z m409 -7 c16 -22 17 -56 1 -72
-7 -7 -34 -12 -60 -12 -47 0 -48 -1 -48 -31 0 -17 -4 -28 -10 -24 -11 7 -14
124 -3 150 9 24 101 16 120 -11z m631 -14 c12 -22 26 -40 30 -40 4 0 18 16 31
35 34 50 39 35 7 -21 -14 -25 -26 -59 -26 -75 0 -16 -4 -29 -10 -29 -5 0 -10
14 -10 31 0 17 -13 49 -30 74 -16 24 -30 48 -30 54 0 22 16 10 38 -29z m328
30 c24 0 44 -4 44 -10 0 -5 -22 -10 -50 -10 -44 0 -50 -3 -50 -21 0 -18 5 -20
40 -18 21 2 43 0 47 -4 12 -12 -18 -27 -54 -27 -26 0 -33 -4 -33 -20 0 -18 7
-20 55 -20 44 0 55 -3 55 -16 0 -12 -6 -15 -22 -10 -13 3 -42 6 -65 6 l-43 0
0 81 c0 70 2 80 16 75 9 -3 36 -6 60 -6z m-3256 -19 c5 -11 10 -33 10 -49 0
-32 -17 -42 -77 -42 -29 0 -33 -3 -33 -26 0 -14 -5 -24 -11 -22 -6 2 -11 36
-12 81 l-2 77 57 0 c46 0 59 -4 68 -19z m475 2 c37 -91 53 -143 46 -143 -5 0
-13 9 -16 21 -6 19 -12 20 -53 14 -25 -4 -52 -14 -58 -23 -26 -36 -23 -2 6 69
16 41 30 75 30 77 0 1 9 2 19 2 10 0 22 -8 26 -17z m520 7 c-3 -5 -26 -10 -51
-10 -37 0 -44 -3 -44 -20 0 -17 7 -20 40 -20 51 0 53 -18 3 -22 -31 -2 -39 -7
-41 -25 -3 -21 1 -23 42 -23 34 0 46 -4 46 -15 0 -11 -12 -15 -45 -15 -55 0
-65 15 -65 99 l0 61 61 0 c37 0 58 -4 54 -10z m253 -2 c20 -20 14 -55 -14 -75
l-25 -19 21 -27 c12 -15 18 -27 13 -27 -14 0 -30 14 -42 38 -17 31 -51 29 -51
-3 0 -14 -4 -25 -10 -25 -6 0 -10 32 -10 75 l0 75 53 0 c29 0 58 -5 65 -12z
m1514 -48 c30 -61 40 -100 26 -100 -5 0 -12 8 -15 18 -4 9 -9 19 -13 22 -3 3
-10 23 -16 45 -7 30 -14 39 -27 37 -19 -3 -20 -1 -11 23 10 26 27 12 56 -45z
m842 44 c11 -28 7 -57 -11 -76 -14 -15 -14 -22 -4 -46 12 -26 11 -26 -18 6
-37 40 -71 40 -82 2 -5 -19 -7 -14 -8 21 -1 26 -4 61 -7 78 l-6 31 65 0 c50 0
66 -4 71 -16z m-1163 -70 l-2 -56 52 4 c35 2 53 -1 56 -9 4 -10 -13 -13 -62
-13 -57 0 -66 2 -61 16 3 9 6 41 6 71 0 31 3 53 7 50 3 -4 5 -32 4 -63z m256
5 c-4 -14 1 -23 16 -28 20 -8 18 -10 -15 -16 -28 -5 -38 -12 -38 -26 0 -11 -4
-19 -10 -19 -14 0 -13 12 6 51 28 57 52 79 41 38z m-711 -438 c110 -111 199
-208 220 -242 23 -39 86 -212 198 -550 91 -271 162 -497 159 -502 -16 -27 -70
67 -121 213 -65 186 -108 303 -126 340 l-16 35 6 -65 c8 -92 30 -196 70 -322
32 -104 53 -199 41 -188 -9 9 -72 186 -142 403 l-68 208 -131 132 c-73 73
-169 159 -214 192 l-82 59 0 225 0 225 -77 -74 -76 -75 78 88 c43 48 82 86 87
85 4 -2 92 -86 194 -187z m2555 -376 c4 -132 7 -489 8 -793 l1 -553 -39 3 -39
3 -6 739 c-4 407 -9 743 -11 746 -3 4 -479 7 -1059 5 -580 -1 -1059 1 -1064 4
-5 3 -12 18 -15 32 -6 25 -4 27 31 34 28 6 2091 25 2172 21 13 -1 16 -38 21
-241z m-3760 213 c7 -10 9 -10 9 0 0 10 49 12 228 10 l227 -3 -3 -25 c-5 -46
-26 -53 -152 -46 -118 7 -1921 9 -1927 2 -2 -1 -6 -133 -10 -292 -4 -192 -10
-291 -17 -296 -7 -5 -7 -8 2 -8 11 0 13 -71 11 -387 -2 -214 -5 -415 -7 -448
l-4 -60 -35 -2 -35 -2 2 502 c2 276 5 629 8 784 l5 282 46 3 c25 2 406 2 845
1 646 -1 801 -4 807 -15z m-1470 -904 c-2 -596 -5 -760 -16 -800 -7 -27 -14
-41 -14 -31 -1 9 -8 17 -16 17 -13 0 -15 94 -15 786 l0 785 31 -3 32 -3 -2
-751z m5058 -229 l-4 -985 -26 0 -26 0 -6 197 c-4 108 -7 548 -7 979 0 616 3
783 13 787 6 3 23 6 36 6 l23 1 -3 -985z m-3757 959 l207 -7 -32 -23 c-64 -47
-60 -46 -522 -42 -242 2 -518 2 -612 0 l-173 -3 0 -33 c0 -36 12 -54 51 -78
21 -14 27 -14 35 -2 9 14 126 16 764 14 l195 -1 -38 -34 -39 -34 -426 -3
c-406 -3 -428 -2 -444 16 -10 10 -18 13 -18 8 0 -6 -17 -12 -37 -14 l-38 -3
-3 -575 c-2 -590 -5 -635 -41 -628 -24 5 -29 155 -29 845 l0 601 497 1 c273 1
589 -1 703 -5z m3587 -726 c0 -403 -4 -741 -8 -752 -6 -15 -13 -6 -35 44 l-28
62 -1 561 -2 562 -85 0 c-47 0 -274 1 -506 3 l-421 2 -39 35 -39 34 465 3
c256 1 499 3 540 3 l75 0 3 48 3 47 -647 0 -648 0 -38 26 c-21 15 -38 30 -38
35 0 11 158 14 863 17 l587 2 -1 -732z m-3015 675 c-10 -43 -23 -63 -40 -63
-23 0 -256 -96 -364 -150 -272 -136 -568 -377 -810 -660 -48 -56 -167 -237
-238 -362 -73 -130 -210 -467 -252 -620 -12 -45 -15 -48 -47 -48 -33 0 -33 0
-20 28 8 15 25 59 38 97 13 39 28 73 33 76 5 4 5 12 1 18 -7 12 72 218 143
372 103 224 271 465 466 668 176 182 473 399 703 513 116 57 354 155 381 157
9 1 10 -7 6 -26z m1386 -45 c342 -126 799 -434 1045 -705 180 -197 313 -399
418 -638 51 -114 142 -371 162 -457 l13 -58 -34 0 c-22 0 -34 5 -34 14 0 22
-65 213 -116 341 -115 287 -300 592 -461 755 -305 312 -683 559 -1044 685 -57
20 -107 39 -111 43 -3 4 -10 24 -13 44 l-7 38 43 -14 c24 -7 87 -29 139 -48z
m-727 17 c29 -19 95 -71 147 -116 52 -45 118 -99 147 -121 47 -35 52 -44 58
-89 4 -28 5 -53 2 -55 -3 -3 -20 11 -39 31 -31 36 -168 135 -185 135 -4 0 -44
29 -88 65 -44 35 -87 65 -96 65 -16 0 -256 -199 -316 -262 -18 -18 -41 -51
-52 -73 -11 -22 -20 -34 -21 -26 0 8 -6 11 -16 7 -12 -5 -15 -2 -10 9 3 9 12
39 21 68 10 36 22 55 38 62 12 6 21 17 20 25 -1 8 10 24 25 34 l27 19 -24 -26
c-55 -61 26 -14 113 65 10 9 31 23 46 30 16 8 51 35 79 61 41 39 51 54 51 81
0 30 6 46 17 46 3 0 28 -16 56 -35z m-242 -8 c-10 -9 -11 -8 -5 6 3 10 9 15
12 12 3 -3 0 -11 -7 -18z m-332 -126 c-6 -18 -13 -30 -15 -28 -2 2 1 18 7 36
6 18 13 30 15 28 2 -2 -1 -18 -7 -36z m-1617 -413 c3 -350 -3 -438 -29 -438
-15 0 -18 16 -4 24 14 9 1 45 -20 57 -18 9 -19 27 -19 328 0 175 3 333 6 350
6 26 11 31 35 31 l29 0 2 -352z m4379 195 c0 -87 3 -274 5 -415 3 -191 2 -258
-7 -264 -8 -4 -9 -3 -5 4 5 8 0 12 -12 12 -14 0 -36 25 -72 82 -29 44 -53 88
-54 97 0 9 -9 22 -18 29 -10 7 -18 18 -18 25 0 8 3 8 11 0 6 -6 17 -9 23 -7 6
2 18 -5 26 -17 8 -12 25 -34 37 -48 l22 -26 -6 343 -6 342 36 0 37 0 1 -157z
m-2804 85 c-3 -8 -6 -5 -6 6 -1 11 2 17 5 13 3 -3 4 -12 1 -19z m642 -34 c40
-43 56 -71 72 -125 12 -39 19 -73 15 -76 -3 -3 -23 9 -44 28 -21 19 -59 48
-83 65 -25 17 -56 46 -69 65 -18 27 -11 22 35 -21 50 -48 55 -51 41 -24 -17
36 -37 144 -25 144 4 0 30 -25 58 -56z m1981 1 l0 -45 -214 4 c-191 3 -218 5
-240 22 -14 11 -26 26 -28 34 -3 15 53 19 400 28 l82 2 0 -45z m-3615 26 c3
-5 -9 -21 -27 -35 -32 -24 -38 -25 -236 -28 l-202 -3 0 38 0 37 229 0 c132 0
232 -4 236 -9z m950 -132 c-8 -19 -13 -25 -9 -14 3 11 8 34 12 50 3 17 8 23
10 14 1 -9 -4 -32 -13 -50z m115 -39 c-6 -23 -14 -40 -16 -37 -3 3 0 24 7 46
16 54 24 46 9 -9z m-1355 -2 l100 3 -52 -52 c-29 -29 -56 -50 -60 -45 -4 4 -1
11 6 15 25 16 -8 23 -77 16 -37 -4 -75 -9 -84 -11 -15 -5 -18 2 -18 41 l0 47
43 -9 c23 -4 87 -7 142 -5z m3905 -33 l0 -44 -65 6 c-36 3 -65 3 -65 -1 0 -15
24 -53 65 -101 47 -56 106 -147 100 -154 -6 -6 -55 47 -55 60 0 14 -20 11 -20
-3 -1 -14 -75 64 -91 94 -7 14 -6 20 6 24 13 5 12 10 -6 35 -16 23 -24 27 -39
19 -15 -8 -28 -1 -70 37 -28 25 -48 49 -43 54 8 8 76 13 211 17 l72 2 0 -45z
m-2705 -52 c-24 -85 -77 -225 -82 -220 -2 3 49 167 84 265 25 71 24 43 -2 -45z
m-2255 -309 c0 -263 -3 -363 -11 -358 -6 3 -9 19 -5 35 4 20 2 29 -8 29 -29 0
-36 76 -36 369 l0 291 30 0 30 0 0 -366z m3863 359 c-13 -2 -35 -2 -50 0 -16
2 -5 4 22 4 28 0 40 -2 28 -4z m-1441 -240 c-99 -282 -115 -341 -109 -388 4
-24 1 -47 -7 -57 -11 -15 -16 -10 -40 39 -27 55 -27 56 -7 69 13 9 36 64 66
157 67 208 105 307 133 350 14 20 27 35 29 33 3 -2 -26 -94 -65 -203z m-1442
70 c0 -6 -97 -131 -125 -161 -2 -2 -3 13 -2 32 1 20 5 36 9 36 4 0 8 6 8 13 0
23 64 87 88 87 12 0 22 -3 22 -7z m-130 -123 c0 -5 -5 -10 -11 -10 -5 0 -7 5
-4 10 3 6 8 10 11 10 2 0 4 -4 4 -10z m3686 -6 c17 -14 17 -15 1 -10 -10 3
-55 7 -100 8 l-82 2 75 6 c41 4 78 7 81 8 3 1 14 -5 25 -14z m-3720 -49 c-9
-9 -16 -13 -16 -8 0 5 5 14 12 21 6 6 14 10 16 7 2 -2 -3 -11 -12 -20z m2218
-17 c8 -13 18 -42 22 -66 4 -23 10 -41 15 -40 4 2 25 27 46 57 56 80 67 75 34
-16 -24 -66 -42 -150 -77 -360 -7 -45 -20 -41 -28 9 -9 55 -21 40 -40 -49 -8
-39 -23 -87 -33 -107 -18 -36 -18 -35 -19 213 l0 249 29 -24 c16 -14 31 -23
33 -21 3 2 -2 36 -11 76 -8 40 -15 79 -15 87 0 22 28 17 44 -8z m1609 -73 c22
-9 37 -44 37 -85 0 -22 -10 -35 -42 -59 -50 -37 -59 -37 -118 -7 -53 27 -63
60 -34 115 30 55 82 67 157 36z m-3354 -4 c11 -11 27 -34 36 -52 20 -37 10
-64 -35 -98 -53 -39 -72 -37 -118 13 -23 25 -42 55 -42 67 0 11 15 36 34 55
40 40 93 47 125 15z m-552 -93 c-3 -8 -6 -5 -6 6 -1 11 2 17 5 13 3 -3 4 -12
1 -19z m3033 -11 c0 -20 -208 -249 -244 -269 -25 -13 -23 -11 101 154 84 110
107 135 123 131 11 -3 20 -10 20 -16z m-589 -48 c-5 -26 -9 -34 -10 -19 -1 27
9 73 15 67 2 -2 0 -23 -5 -48z m389 11 c-6 -11 -15 -20 -21 -20 -6 0 -7 -4 -4
-10 3 -5 -1 -10 -9 -10 -25 0 -19 24 12 42 34 22 35 22 22 -2z m-1386 -129
c-4 -4 -54 53 -68 78 -5 9 9 -4 31 -29 23 -25 39 -47 37 -49z m1766 25 c0 -25
-18 -47 -102 -130 -106 -104 -226 -206 -242 -206 -4 0 -2 7 5 16 8 9 14 23 14
30 0 8 67 91 149 185 136 156 151 170 163 153 7 -10 13 -31 13 -48z m670 9 c0
-11 -11 -15 -40 -15 -63 0 -48 25 18 29 13 1 22 -5 22 -14z m-3340 -4 c0 -10
-69 -25 -77 -17 -3 2 -2 9 2 15 8 13 75 15 75 2z m0 -70 c0 -11 -25 -21 -56
-21 -15 0 -24 6 -24 15 0 11 11 15 40 15 22 0 40 -4 40 -9z m1092 -71 c-2 -2
-7 2 -12 10 -8 13 -8 25 1 65 1 6 5 -8 8 -30 4 -22 5 -42 3 -45z m2251 65 c-4
-15 -76 -12 -81 3 -3 10 7 12 39 10 24 -2 43 -7 42 -13z m-455 -21 c56 -9 102
-20 102 -24 0 -25 -324 -259 -338 -245 -3 3 14 26 39 52 l44 46 -57 -31 c-32
-18 -58 -29 -58 -25 0 5 21 34 46 66 25 32 44 61 41 63 -2 3 -30 -5 -61 -17
-32 -11 -60 -18 -63 -15 -4 3 28 40 70 82 67 68 79 76 104 70 15 -3 74 -13
131 -22z m-4180 -31 c-10 -2 -26 -2 -35 0 -10 3 -2 5 17 5 19 0 27 -2 18 -5z
m2546 -172 c-4 -5 -114 89 -113 97 1 4 0 9 -1 12 -1 3 -3 12 -5 20 -2 8 -7 24
-11 35 -4 11 24 -20 63 -70 39 -49 69 -92 67 -94z m2084 151 c3 -10 -7 -12
-39 -10 -24 2 -44 9 -47 16 -3 10 7 12 39 10 24 -2 44 -9 47 -16z m-3348 -2
c0 -5 -13 -10 -30 -10 -16 0 -30 5 -30 10 0 6 14 10 30 10 17 0 30 -4 30 -10z
m3158 -29 c11 -7 11 -15 -2 -45 -28 -67 -131 -193 -197 -242 -51 -37 -79 -47
-35 -13 18 14 26 28 23 40 -3 12 4 26 21 39 48 35 8 21 -53 -19 -88 -58 -87
-44 4 59 50 57 204 190 219 190 4 0 13 -4 20 -9z m177 -31 c11 -18 -3 -26 -39
-22 -48 6 -49 32 -2 32 19 0 38 -4 41 -10z m-3335 -39 c0 -15 -29 -33 -45 -27
-18 7 -20 43 -2 49 14 5 47 -10 47 -22z m3330 -20 c0 -6 -5 -13 -10 -16 -15
-9 -71 5 -64 16 7 12 74 12 74 0z m-4468 -53 c28 -24 48 -62 48 -96 0 -44 -34
-77 -103 -97 -57 -16 -98 -49 -81 -65 5 -5 24 -10 43 -12 46 -4 48 -18 8 -45
-24 -17 -48 -23 -85 -23 l-52 0 0 51 c0 28 5 59 10 70 14 25 108 79 141 79 14
0 30 5 37 12 18 18 14 56 -7 68 -25 13 -108 13 -116 0 -3 -5 -17 -10 -31 -10
-33 0 -32 32 2 59 21 17 41 21 98 21 43 0 78 -5 88 -12z m5773 -19 c34 -33 43
-90 21 -124 -24 -36 -75 -65 -114 -65 -43 0 -72 -16 -72 -40 0 -21 26 -28 119
-33 57 -2 80 -19 68 -51 -5 -14 -24 -16 -126 -16 -134 0 -131 -2 -131 87 0 84
26 109 132 122 53 6 53 6 53 41 l0 35 -80 0 c-111 0 -133 17 -72 56 26 16 45
19 104 17 62 -3 77 -7 98 -29z m321 -3 c27 -27 34 -42 34 -74 0 -35 -5 -45
-34 -67 -19 -14 -50 -31 -70 -36 -35 -10 -66 -33 -66 -49 0 -4 41 -11 90 -15
l90 -7 0 -39 0 -39 -135 0 -135 0 0 58 c0 51 4 61 28 83 38 36 74 56 113 66
29 8 35 14 37 41 3 27 -1 32 -23 38 -14 3 -40 3 -58 0 -62 -13 -107 -18 -107
-12 0 16 32 66 47 75 10 6 49 11 87 11 64 0 70 -2 102 -34z m-6407 -11 c59
-68 34 -131 -65 -161 -62 -18 -96 -41 -92 -61 3 -14 17 -17 91 -16 84 1 87 0
87 -22 0 -21 -3 -22 -72 -18 -40 3 -79 8 -88 13 -9 5 -23 4 -33 -2 -10 -5 -25
-7 -34 -4 -8 4 -22 1 -29 -5 -11 -9 -14 -5 -14 25 0 21 4 46 10 56 13 25 72
61 139 85 51 19 56 24 56 50 l0 30 -97 -3 c-57 -1 -98 2 -98 7 0 10 44 44 70
54 8 3 43 6 76 6 59 1 64 -1 93 -34z m4750 16 c20 -13 6 -39 -24 -47 -54 -13
-72 19 -24 43 29 15 30 15 48 4z m135 -50 c3 -5 -9 -18 -27 -28 -17 -11 -72
-53 -122 -94 -49 -41 -104 -85 -122 -97 -34 -24 -63 -29 -63 -11 0 21 163 179
214 209 50 28 109 39 120 21z m166 -61 c0 -26 -11 -37 -87 -88 -106 -72 -195
-122 -213 -122 -20 0 132 142 214 200 38 27 72 47 77 44 5 -3 9 -18 9 -34z
m-3116 -6 c20 -19 21 -58 3 -73 -8 -6 -28 -14 -45 -17 -22 -5 -32 -12 -32 -25
0 -11 -7 -19 -15 -19 -12 0 -15 15 -15 75 l0 75 44 0 c27 0 51 -6 60 -16z m83
-45 c8 -53 9 -54 46 -59 56 -7 45 -25 -15 -25 l-53 0 -3 59 c-3 56 3 94 13 84
3 -2 8 -29 12 -59z m217 7 c36 -81 40 -96 23 -96 -8 0 -20 7 -27 15 -7 8 -23
15 -37 15 -13 0 -26 -7 -29 -15 -10 -24 -37 -19 -29 6 16 51 56 129 65 129 6
0 21 -24 34 -54z m97 28 l24 -25 22 28 c34 42 50 17 18 -29 -14 -20 -25 -51
-25 -67 0 -21 -5 -31 -15 -31 -10 0 -15 11 -15 35 0 24 -9 45 -30 68 -16 19
-30 37 -30 41 0 15 29 4 51 -20z m239 12 c0 -10 -13 -16 -37 -18 -47 -4 -55
-26 -12 -30 46 -4 50 -28 5 -28 -25 0 -36 -4 -36 -15 0 -11 11 -15 40 -15 29
0 40 -4 40 -15 0 -12 -13 -15 -55 -15 l-55 0 0 75 0 75 55 0 c41 0 55 -4 55
-14z m148 2 c15 -15 16 -60 1 -75 -8 -8 -8 -17 0 -31 14 -27 14 -32 -3 -32 -7
0 -21 11 -30 25 -9 14 -20 25 -25 25 -5 0 -12 -11 -15 -25 -13 -50 -26 -24
-26 50 l0 75 43 0 c24 0 48 -5 55 -12z m187 -38 c9 -27 20 -50 24 -50 3 0 15
23 26 50 13 33 25 50 37 50 15 0 13 -10 -15 -75 -17 -41 -37 -75 -44 -75 -12
0 -36 40 -66 113 -15 35 -15 37 3 37 13 0 23 -14 35 -50z m216 39 c30 -15 13
-28 -29 -23 -32 5 -35 4 -20 -8 9 -7 30 -21 47 -30 37 -20 40 -50 9 -72 -29
-20 -62 -20 -82 0 -26 26 -19 35 24 28 49 -8 56 12 10 28 -38 13 -55 41 -40
68 12 22 49 26 81 9z m257 -5 c24 -17 29 -53 10 -72 -7 -7 -29 -12 -49 -12
-33 0 -38 -3 -41 -25 -2 -14 -7 -27 -13 -28 -6 -1 -11 31 -13 76 l-3 77 43 0
c24 0 54 -7 66 -16z m90 -43 c-4 -52 -2 -58 14 -53 27 7 68 -7 68 -23 0 -11
-13 -15 -55 -15 l-55 0 0 75 c0 62 3 75 16 75 14 0 16 -9 12 -59z m222 -3 c17
-35 30 -69 30 -75 0 -18 -29 -16 -36 2 -4 9 -19 15 -35 15 -17 0 -32 -6 -35
-15 -6 -15 -34 -21 -34 -7 0 11 70 142 76 142 3 0 18 -28 34 -62z m98 35 l19
-26 18 26 c9 15 24 27 31 27 19 0 17 -9 -11 -55 -14 -22 -25 -52 -25 -67 0
-16 -4 -28 -10 -28 -5 0 -10 10 -10 23 0 12 -16 46 -35 75 -32 46 -33 52 -16
52 11 0 28 -12 39 -27z m242 12 c0 -11 -11 -15 -41 -15 -49 0 -50 -23 0 -28
41 -4 36 -26 -8 -30 -43 -4 -35 -26 12 -30 24 -2 37 -8 37 -18 0 -10 -14 -14
-55 -14 l-55 0 0 75 0 75 55 0 c42 0 55 -3 55 -15z m154 9 c21 -8 21 -67 1
-84 -14 -12 -13 -16 6 -37 l22 -23 -25 0 c-16 0 -32 9 -42 25 -19 28 -36 25
-36 -6 0 -12 -5 -19 -12 -17 -9 3 -14 30 -16 76 l-3 72 45 0 c24 0 51 -3 60
-6z m-3841 -164 c-3 -12 -8 -19 -11 -16 -5 6 5 36 12 36 2 0 2 -9 -1 -20z
m4745 -22 c29 -29 0 -68 -62 -84 -34 -8 -33 4 4 54 32 45 39 49 58 30z m-1878
-74 c0 -2 -28 -3 -62 -3 -56 2 -58 3 -23 8 38 6 85 3 85 -5z m3410 -145 l0
-42 -1102 6 c-1679 10 -1768 12 -1768 43 0 8 -10 15 -22 16 -44 5 1020 13
1950 16 l942 2 0 -41z m-6006 25 c9 -3 16 -12 16 -20 0 -11 -18 -14 -80 -14
-47 0 -80 4 -80 10 0 6 14 10 30 10 17 0 30 5 30 10 0 11 59 14 84 4z m2406
-25 c0 -29 -2 -30 -37 -27 -29 2 -39 8 -42 23 -2 11 -8 23 -15 27 -6 4 13 8
42 8 51 0 52 0 52 -31z m195 14 c16 -15 15 -17 -7 -29 -12 -7 -35 -13 -50 -14
-24 0 -28 4 -28 30 0 28 3 30 34 30 19 0 42 -7 51 -17z m-2525 -3 c0 -5 -7
-10 -15 -10 -8 0 -15 5 -15 10 0 6 7 10 15 10 8 0 15 -4 15 -10z m1074 -185
c141 -36 276 -134 357 -259 46 -71 93 -187 114 -287 9 -41 20 -81 25 -90 7
-14 1 -17 -43 -23 -72 -8 -320 -7 -333 2 -6 4 -13 41 -16 83 -8 127 -68 218
-188 280 -43 23 -54 24 -268 25 l-223 1 6 -181 c4 -99 8 -186 10 -192 5 -16
-74 -24 -230 -24 l-131 0 4 271 5 271 -74 72 -74 71 500 -3 c405 -2 511 -5
559 -17z m3286 5 c156 -43 243 -141 291 -327 23 -92 24 -149 4 -228 -32 -120
-112 -227 -200 -265 -25 -11 -45 -25 -45 -31 0 -7 34 -63 75 -125 97 -145 207
-262 282 -300 l57 -29 -120 -6 c-206 -11 -474 -10 -474 1 0 6 7 13 15 16 38
15 7 67 -187 310 l-128 162 -37 -9 c-21 -5 -64 -9 -95 -9 -57 0 -57 0 -63 -33
-4 -18 -5 -102 -3 -186 l3 -154 53 -47 c28 -25 52 -49 52 -51 0 -2 -124 -5
-275 -5 l-275 -1 50 53 c28 29 51 54 52 56 1 2 4 111 7 242 l6 240 48 12 c81
21 78 35 -9 42 -46 4 -54 7 -48 21 9 22 18 482 11 513 -4 14 -31 53 -62 87
-30 34 -55 63 -55 64 0 1 231 2 512 1 375 -1 525 -5 558 -14z m-2013 -132 c-4
-79 -7 -144 -7 -145 0 -2 -36 -3 -80 -3 -99 0 -144 -17 -166 -62 l-15 -33
-123 -1 c-92 -1 -131 -6 -154 -18 -31 -16 -32 -16 -32 6 0 13 5 43 11 68 6 25
17 81 25 124 l14 80 -30 53 c-17 29 -30 57 -30 63 0 6 103 10 296 10 l297 0
-6 -142z m468 110 c65 -34 87 -59 124 -138 65 -139 77 -270 33 -356 -11 -22
-41 -59 -67 -83 -47 -43 -212 -154 -345 -231 -41 -24 -86 -52 -99 -62 -13 -10
-28 -18 -32 -18 -13 0 -11 297 1 342 9 31 27 49 114 112 108 79 122 96 107
125 -20 37 -44 46 -135 51 l-91 5 -3 100 c-2 55 0 119 3 143 l6 44 167 -4
c158 -3 170 -5 217 -30z m3052 -20 c-3 -8 -6 -5 -6 6 -1 11 2 17 5 13 3 -3 4
-12 1 -19z m-6697 -163 c0 -8 -4 -15 -10 -15 -5 0 -7 7 -4 15 4 8 8 15 10 15
2 0 4 -7 4 -15z m6227 -101 c-3 -3 -12 -4 -19 -1 -8 3 -5 6 6 6 11 1 17 -2 13
-5z m412 -21 c-26 -22 -36 -24 -91 -20 -58 4 -102 12 -138 23 -35 12 16 19
134 20 l125 1 -30 -24z m-6771 2 c23 -4 42 -11 42 -16 0 -12 -130 -12 -149 0
-23 15 -1 33 33 28 17 -3 50 -9 74 -12z m6505 -2 c-7 -2 -19 -2 -25 0 -7 3 -2
5 12 5 14 0 19 -2 13 -5z m-265 -120 c15 -16 22 -37 22 -63 0 -51 -26 -70 -97
-70 -56 0 -59 -3 -43 -44 9 -24 7 -26 -16 -26 -31 0 -31 1 -38 132 l-6 108 78
-6 c65 -5 81 -10 100 -31z m239 5 c31 -29 30 -72 -2 -103 -19 -19 -35 -25 -71
-25 l-46 0 4 -35 c3 -29 1 -35 -14 -35 -24 0 -26 8 -30 123 l-3 97 69 0 c58 0
74 -4 93 -22z m-6557 -13 c0 -8 -7 -15 -15 -15 -8 0 -15 7 -15 15 0 8 7 15 15
15 8 0 15 -7 15 -15z m628 -1 c12 -8 22 -24 22 -36 0 -16 -4 -19 -22 -14 -13
4 -65 10 -115 13 -89 6 -93 7 -93 29 0 24 2 24 93 24 68 0 99 -4 115 -16z m12
-133 c0 -16 -12 -19 -105 -25 -58 -4 -109 -5 -115 -1 -5 3 -10 15 -10 26 0 18
8 19 115 19 106 0 115 -2 115 -19z m2742 -250 c-3 -108 -4 -112 -28 -123 -31
-14 -31 -30 0 -22 l24 6 7 -144 c4 -79 6 -153 4 -165 l-4 -22 -337 -3 -338 -3
39 35 c56 51 66 95 55 226 l-9 105 40 18 c22 10 89 48 150 85 95 59 165 106
350 238 l40 29 5 -75 c3 -40 4 -124 2 -185z m-1834 -31 l3 -135 207 3 c164 2
217 6 256 20 68 23 146 96 175 164 13 29 27 60 31 68 6 12 40 15 194 18 l186
2 -6 -27 c-60 -267 -213 -440 -471 -535 -56 -20 -76 -21 -555 -22 -273 -1
-494 2 -492 6 3 4 25 22 49 38 73 50 75 58 75 314 l0 225 173 -2 172 -2 3
-135z m4410 43 c-15 -2 -42 -2 -60 0 -18 2 -6 4 27 4 33 0 48 -2 33 -4z
m-1812 -105 c-8 -46 -18 -149 -21 -230 l-7 -148 -314 -1 c-173 -1 -320 -2
-326 -3 -10 -1 -12 35 -10 153 1 85 5 157 7 159 3 3 125 8 272 11 313 7 314 7
372 106 19 33 36 54 38 48 3 -7 -2 -49 -11 -95z m-1198 -524 c46 -7 107 -69
122 -124 23 -85 -10 -173 -78 -206 -28 -15 -65 -20 -159 -22 l-123 -4 0 -54
c0 -41 5 -59 20 -74 11 -11 20 -22 20 -25 0 -3 -45 -5 -100 -5 -55 0 -100 3
-100 6 0 3 8 17 19 30 17 22 18 41 17 229 -2 195 -3 206 -24 228 -12 13 -22
25 -22 28 0 6 367 0 408 -7z m362 0 c0 -3 -6 -12 -14 -20 -12 -12 -6 -31 45
-141 32 -70 63 -141 69 -157 13 -37 19 -30 58 64 17 41 46 110 66 152 28 61
32 77 20 82 -8 3 -14 10 -14 16 0 6 39 10 103 10 98 0 101 -1 81 -18 -30 -24
-236 -460 -229 -484 6 -16 0 -18 -69 -18 -66 0 -76 2 -76 18 0 9 -45 114 -100
232 -67 145 -110 224 -130 243 l-30 27 110 0 c60 0 110 -3 110 -6z m895 -4
c46 -17 104 -79 116 -124 22 -83 -14 -161 -93 -200 -46 -23 -64 -26 -155 -26
l-103 0 0 -57 c0 -44 5 -62 22 -80 l21 -23 -106 0 c-59 0 -107 3 -107 6 0 4 8
13 18 20 15 11 17 36 20 222 3 209 3 209 -21 238 l-25 29 192 3 c126 2 201 0
221 -8z m975 -62 l0 -53 37 -2 c52 -3 151 -55 200 -105 52 -54 103 -149 103
-194 0 -29 -3 -34 -25 -34 -21 0 -30 11 -59 74 -39 86 -90 139 -175 185 -33
17 -63 36 -66 42 -14 22 -25 -6 -25 -62 0 -56 -1 -59 -25 -59 -32 0 -47 30
-39 80 8 47 5 48 -67 18 -109 -44 -167 -101 -219 -215 -19 -43 -28 -53 -48
-53 -23 0 -24 3 -19 39 8 61 51 145 97 190 78 76 208 122 243 86 16 -15 17
-12 17 49 l0 66 35 0 35 0 0 -52z m-3316 -58 c74 -23 154 -81 198 -145 119
-170 69 -429 -105 -548 -72 -49 -134 -67 -226 -67 -96 0 -143 16 -215 72 -112
88 -160 184 -159 319 0 146 53 247 171 326 97 66 214 80 336 43z m4848 -90
c41 -12 78 -60 78 -101 -1 -43 -77 -109 -126 -109 -26 0 -84 -43 -84 -62 0 -9
-10 -20 -22 -24 -13 -3 -32 -14 -42 -23 -18 -15 -19 -15 -12 29 10 66 32 89
120 124 79 32 103 56 90 90 -8 21 -104 29 -124 11 -17 -15 -80 -21 -80 -7 0 4
11 24 25 45 25 35 28 37 83 37 31 0 74 -5 94 -10z m-278 -44 c18 -28 21 -88 6
-117 -14 -26 -63 -50 -97 -47 -78 5 -103 -1 -114 -29 -10 -27 -11 -27 -25 -9
-35 48 -1 81 92 91 38 4 75 12 82 17 18 16 14 56 -7 70 -19 11 -19 14 -4 39
19 32 39 27 67 -15z m-164 18 c0 -4 -7 -16 -17 -26 -28 -32 -91 -17 -64 15 11
14 81 22 81 11z m-1024 -116 c42 -47 50 -77 30 -120 -22 -46 -79 -82 -140 -88
-43 -4 -51 -8 -54 -27 -3 -23 -1 -23 96 -23 107 0 112 -2 112 -56 l0 -24 -150
0 -150 0 0 60 c0 59 2 62 42 99 34 32 52 40 94 46 63 8 82 25 66 60 -10 21
-18 25 -58 25 -26 0 -55 -6 -63 -14 -10 -8 -29 -12 -48 -9 -38 6 -44 34 -15
69 30 37 54 45 130 41 71 -2 75 -4 108 -39z m-438 -108 l113 0 -3 -37 -3 -38
-52 3 -53 3 7 -33 c21 -109 85 -186 198 -239 l80 -38 7 27 c5 15 6 33 3 40 -3
8 6 12 29 12 l33 0 7 -116 c4 -64 5 -119 2 -121 -2 -3 -20 -6 -38 -6 -36 -2
-34 -5 -37 91 -1 20 -5 31 -11 27 -17 -10 -121 24 -172 57 -26 16 -62 46 -79
66 -68 77 -101 197 -61 222 13 8 -1 9 -55 4 l-73 -6 0 47 c0 44 1 47 23 41 12
-3 73 -6 135 -6z m832 -39 l0 -39 -145 0 -145 1 0 38 0 39 145 0 145 0 0 -39z
m1118 -8 c-10 -2 -28 -2 -40 0 -13 2 -5 4 17 4 22 1 32 -1 23 -4z m-1241 -93
c-15 -130 -151 -265 -295 -295 -33 -7 -33 -6 -30 26 3 29 8 34 48 47 51 17
113 57 151 99 32 33 69 101 69 125 0 21 26 48 47 48 13 0 15 -9 10 -50z m272
-112 c1 -27 6 -48 12 -48 6 0 7 -5 2 -12 -9 -14 -9 -24 -18 -273 -9 -253 -12
-224 -13 115 0 173 4 304 8 290 4 -14 8 -46 9 -72z m-2519 58 c0 -27 -9 -29
-147 -42 -49 -4 -92 -15 -134 -35 -34 -17 -68 -28 -76 -25 -7 3 -13 1 -13 -3
0 -14 23 -19 42 -10 18 9 142 8 130 -2 -4 -3 -28 -22 -54 -42 -56 -45 -82 -43
-134 10 -43 43 -44 76 -4 113 40 37 126 52 328 58 59 2 62 1 62 -22z m511 14
c127 -10 158 -19 189 -50 30 -30 26 -73 -11 -115 -43 -49 -70 -54 -119 -20
-44 31 -47 37 -25 55 14 12 42 10 90 -5 11 -3 -10 10 -46 29 -62 33 -122 49
-231 62 -37 4 -48 9 -48 23 0 35 12 37 201 21z m1888 -72 c-1 -24 -3 -35 -6
-25 -4 14 -8 16 -19 6 -8 -6 -14 -8 -14 -5 0 10 30 66 35 66 3 0 4 -19 4 -42z
m513 -70 c2 -40 2 -169 0 -285 -3 -192 -5 -213 -20 -214 -15 -1 -15 -2 1 -6
26 -7 20 -22 -7 -17 -17 3 -26 -1 -29 -13 -2 -10 -5 9 -5 42 -1 33 -3 67 -4
75 0 8 0 119 0 247 2 211 4 232 20 236 39 10 40 8 44 -65z m-355 -25 c-3 -10
-5 -2 -5 17 0 19 2 27 5 18 2 -10 2 -26 0 -35z m-2222 -713 l0 -695 -38 -115
c-38 -113 -90 -301 -108 -390 -22 -110 -31 -106 -53 23 -10 56 -42 176 -72
267 -30 91 -59 181 -64 200 -14 50 -24 786 -15 1034 8 230 7 229 61 128 10
-21 28 -51 40 -69 21 -31 21 -45 29 -610 4 -318 8 -623 10 -678 2 -95 14 -226
20 -233 2 -2 6 34 9 80 21 314 26 515 26 1066 0 509 2 622 13 622 8 0 36 16
63 35 27 19 56 34 64 33 13 -3 15 -88 15 -698z m1995 620 c0 -5 -4 -10 -10
-10 -5 0 -10 5 -10 10 0 6 5 10 10 10 6 0 10 -4 10 -10z m70 -212 c0 -149 -3
-189 -12 -180 -7 7 -20 12 -30 12 -17 0 -18 12 -18 155 0 152 1 156 25 180 13
14 27 25 30 25 3 0 5 -86 5 -192z m326 -35 c-4 -8 -13 -13 -20 -10 -8 3 -17 1
-20 -6 -2 -7 -5 3 -5 21 -1 18 3 31 8 28 5 -4 7 3 4 14 -4 14 0 20 11 20 9 0
17 8 18 18 1 9 3 -3 5 -27 3 -24 2 -50 -1 -58z m-4450 0 c-7 -7 -26 7 -26 19
0 6 6 6 15 -2 9 -7 13 -15 11 -17z m3414 -77 c0 -8 6 -17 13 -19 7 -4 6 -6 -4
-6 -9 -1 -19 8 -22 19 -3 11 -1 20 4 20 5 0 9 -6 9 -14z m-36 -27 c-3 -5 -10
-7 -15 -3 -5 3 -7 10 -3 15 3 5 10 7 15 3 5 -3 7 -10 3 -15z m326 -4 c0 -24
-24 -45 -36 -32 -5 5 26 56 34 57 1 0 2 -11 2 -25z m747 -67 c-3 -8 -6 -5 -6
6 -1 11 2 17 5 13 3 -3 4 -12 1 -19z m-1227 -22 c0 -2 -12 -12 -27 -21 l-28
-18 19 21 c17 20 36 29 36 18z m1200 -10 c0 -3 -4 -8 -10 -11 -5 -3 -10 -1
-10 4 0 6 5 11 10 11 6 0 10 -2 10 -4z m-1265 -36 c-3 -5 -12 -10 -18 -10 -7
0 -6 4 3 10 19 12 23 12 15 0z m1252 -22 c-3 -7 -5 -2 -5 12 0 14 2 19 5 13 2
-7 2 -19 0 -25z m-1297 -47 c-8 -6 -18 -7 -22 -5 -4 3 -6 -1 -3 -8 6 -15 -24
-33 -193 -118 -68 -34 -127 -59 -130 -55 -4 4 2 12 13 18 19 11 19 11 -4 17
-21 5 -3 17 110 75 132 68 170 82 219 84 19 0 21 -2 10 -8z m1013 -71 c6 -43
6 -44 -9 -22 -19 26 -44 29 -44 5 0 -21 -13 -8 -17 17 -2 11 5 24 16 30 26 13
29 13 34 -7 3 -13 5 -11 6 6 1 35 7 23 14 -29z m-293 -77 c-24 -9 -51 -22 -58
-30 -9 -8 -37 -13 -80 -12 -45 1 -59 3 -42 8 25 7 25 7 3 13 -13 3 -33 4 -45
0 -21 -5 -21 -6 -2 -13 12 -5 -1 -7 -36 -7 -44 0 -49 2 -25 8 32 7 23 15 -25
23 -20 3 -18 5 10 7 l35 3 -40 7 c-23 4 44 7 155 8 190 0 194 0 150 -15z
m-1147 -30 c-9 -3 -10 -10 -3 -23 6 -10 7 -21 3 -23 -26 -15 -144 -47 -153
-42 -17 10 -11 36 8 34 36 -3 62 1 62 12 0 5 -4 7 -10 4 -5 -3 -10 -3 -10 2 0
4 21 15 48 24 44 15 82 24 55 12z m-306 -128 c0 -19 -50 -33 -144 -42 -63 -5
-73 -4 -73 10 0 13 11 16 70 13 39 -1 73 1 76 6 3 4 19 12 37 17 18 5 32 10
33 10 0 1 1 -6 1 -14z m-957 -7 c0 -4 13 -3 28 2 18 5 43 3 68 -6 21 -8 41
-14 44 -14 2 0 -1 -5 -7 -11 -9 -9 -35 -7 -105 6 -110 21 -139 33 -75 31 26 0
47 -4 47 -8z m1003 5 c-7 -2 -19 -2 -25 0 -7 3 -2 5 12 5 14 0 19 -2 13 -5z
m-2533 -393 c11 -11 20 -28 20 -37 0 -22 -29 -53 -51 -53 -33 0 -49 -12 -49
-36 0 -17 -6 -24 -20 -24 -18 0 -20 7 -20 85 l0 85 50 0 c37 0 55 -5 70 -20z
m110 -44 l0 -65 42 -3 c31 -2 44 -8 46 -20 3 -16 -5 -18 -57 -18 l-61 0 0 85
c0 69 3 85 15 85 12 0 15 -14 15 -64z m255 12 c33 -68 42 -118 22 -118 -8 0
-17 7 -21 15 -3 9 -18 15 -40 15 -21 0 -36 -6 -40 -15 -3 -8 -13 -15 -21 -15
-12 0 -15 6 -9 23 15 51 64 147 73 147 6 0 22 -23 36 -52z m122 22 c9 -16 23
-30 30 -30 7 0 19 14 28 30 15 29 45 42 45 19 0 -6 -13 -30 -30 -54 -18 -26
-30 -56 -30 -75 0 -40 -24 -36 -28 5 -2 16 -17 48 -33 71 -16 24 -29 47 -29
53 0 22 29 10 47 -19z m283 10 c0 -17 -7 -20 -45 -20 -33 0 -45 -4 -45 -15 0
-10 11 -15 35 -15 24 0 35 -5 35 -15 0 -11 -11 -15 -36 -15 -28 0 -35 -3 -32
-17 2 -13 15 -19 46 -21 28 -2 42 -8 42 -18 0 -11 -14 -14 -60 -14 l-60 0 0
85 0 85 60 0 c53 0 60 -2 60 -20z m188 8 c18 -18 15 -85 -4 -92 -15 -6 -15 -8
0 -31 20 -31 20 -35 -2 -35 -10 0 -25 11 -32 25 -7 14 -22 25 -32 25 -13 0
-18 -7 -18 -25 0 -16 -6 -25 -15 -25 -12 0 -15 16 -15 85 l0 85 53 0 c29 0 58
-5 65 -12z m214 -45 l24 -58 27 58 c15 34 32 57 41 57 21 0 20 -8 -3 -53 -10
-20 -26 -55 -35 -77 -9 -22 -21 -40 -26 -40 -11 0 -80 135 -80 157 0 33 29 7
52 -44z m267 48 c22 -14 3 -31 -35 -31 -43 0 -44 -12 -2 -31 45 -20 55 -41 35
-73 -26 -39 -107 -35 -107 5 0 22 4 23 29 7 19 -12 51 -5 51 11 0 5 -16 15
-35 21 -42 14 -60 42 -45 69 5 11 15 22 22 24 21 9 72 7 87 -2z m1245 -43 l24
-53 23 52 c16 34 30 53 42 53 9 0 17 -3 16 -7 -2 -24 -66 -157 -77 -161 -7 -2
-26 25 -47 73 -39 86 -41 95 -20 95 9 0 26 -23 39 -52z m270 46 c9 -3 16 -12
16 -20 0 -10 -11 -14 -40 -12 -46 3 -52 -13 -10 -27 16 -5 37 -18 47 -28 16
-16 16 -20 3 -45 -17 -30 -65 -41 -100 -22 -36 19 -23 32 25 24 37 -5 45 -3
45 9 0 9 -17 21 -42 29 -36 11 -44 18 -46 41 -2 16 2 35 9 43 12 14 64 19 93
8z m301 -19 c44 -43 22 -85 -46 -85 -37 0 -39 -2 -39 -30 0 -23 -4 -30 -20
-30 -18 0 -20 7 -20 78 0 43 3 82 7 85 3 4 26 7 50 7 33 0 50 -6 68 -25z m115
-46 l0 -71 37 4 c30 2 38 -1 41 -15 3 -16 -3 -18 -55 -15 l-58 3 -3 69 c-3 78
1 96 23 96 12 0 15 -14 15 -71z m262 -9 c15 -41 27 -78 27 -82 2 -15 -37 -8
-43 7 -3 9 -18 15 -35 15 -16 0 -31 -6 -35 -15 -5 -13 -46 -23 -46 -11 0 2 14
31 30 64 17 34 30 67 30 75 0 19 11 28 30 25 9 -2 26 -34 42 -78z m118 45 c12
-19 23 -35 25 -35 2 0 13 16 25 35 12 19 28 35 36 35 20 0 18 -4 -21 -66 -19
-30 -35 -66 -35 -79 0 -16 -6 -25 -15 -25 -10 0 -15 10 -15 34 0 22 -11 51
-30 79 -35 53 -36 57 -11 57 11 0 28 -15 41 -35z m265 15 c0 -10 -13 -16 -42
-18 -56 -4 -59 -29 -5 -34 25 -2 37 -8 37 -18 0 -10 -12 -16 -37 -18 -25 -2
-38 -8 -38 -18 0 -10 13 -14 45 -14 33 0 45 -4 45 -15 0 -12 -13 -15 -59 -15
l-59 0 -4 81 c-2 44 -1 83 2 85 2 3 29 4 60 2 41 -2 55 -7 55 -18z m214 -6
c26 -33 26 -50 2 -71 -20 -16 -20 -17 1 -42 l20 -26 -23 -3 c-16 -3 -29 4 -42
22 -24 34 -47 34 -47 0 0 -19 -5 -25 -17 -22 -15 3 -18 16 -21 86 l-3 82 55 0
c47 0 57 -4 75 -26z"/>
<path d="M4602 7758 c3 -31 5 -33 43 -33 30 0 41 4 43 18 6 28 -17 47 -55 47
-33 0 -34 -2 -31 -32z"/>
<path d="M2310 7745 c0 -32 2 -35 30 -35 32 0 50 22 43 51 -4 14 -15 19 -39
19 -32 0 -34 -2 -34 -35z"/>
<path d="M2837 7735 l-17 -35 35 0 c19 0 35 2 35 5 0 8 -30 65 -33 65 -2 0
-11 -16 -20 -35z"/>
<path d="M3560 7755 c0 -24 3 -26 38 -23 29 2 37 7 37 23 0 16 -8 21 -37 23
-35 3 -38 1 -38 -23z"/>
<path d="M5900 7750 c0 -29 2 -30 44 -30 30 0 46 5 50 15 11 30 -5 45 -50 45
-42 0 -44 -1 -44 -30z"/>
<path d="M4310 7104 c0 -22 53 -83 132 -153 160 -140 149 -88 -15 72 -79 76
-117 103 -117 81z"/>
<path d="M1941 5294 c0 -11 3 -14 6 -6 3 7 2 16 -1 19 -3 4 -6 -2 -5 -13z"/>
<path d="M2980 5205 c0 -22 4 -26 23 -23 14 2 22 10 22 23 0 13 -8 21 -22 23
-19 3 -23 -1 -23 -23z"/>
<path d="M3310 5186 c0 -9 5 -16 10 -16 6 0 10 4 10 9 0 6 -4 13 -10 16 -5 3
-10 -1 -10 -9z"/>
<path d="M3770 5220 c-11 -7 -12 -12 -3 -21 15 -15 48 -7 48 11 0 18 -24 24
-45 10z"/>
<path d="M4420 5205 c0 -9 9 -15 25 -15 16 0 25 6 25 15 0 9 -9 15 -25 15 -16
0 -25 -6 -25 -15z"/>
<path d="M4760 5180 c-9 -16 -8 -20 5 -20 8 0 15 9 15 20 0 11 -2 20 -5 20 -2
0 -9 -9 -15 -20z"/>
<path d="M5230 5205 c0 -12 7 -15 25 -13 14 2 26 8 26 13 0 6 -12 11 -26 13
-18 2 -25 -1 -25 -13z"/>
<path d="M5540 4268 l0 -148 248 0 c215 0 251 2 281 18 89 45 93 184 8 246
-26 20 -46 21 -283 26 l-254 5 0 -147z"/>
<path d="M6960 4186 c0 -37 12 -46 60 -46 36 0 55 22 41 48 -12 23 -32 32 -72
32 -26 0 -29 -3 -29 -34z"/>
<path d="M7212 4178 c3 -30 6 -33 33 -30 69 8 74 62 5 62 -40 0 -41 -1 -38
-32z"/>
<path d="M2107 3924 c-10 -11 -8 -44 2 -44 6 0 13 4 16 10 8 12 -9 43 -18 34z"/>
<path d="M3125 3900 c-3 -5 1 -10 9 -10 9 0 16 5 16 10 0 6 -4 10 -9 10 -6 0
-13 -4 -16 -10z"/>
<path d="M3480 3045 l0 -65 99 0 c75 0 103 4 115 15 23 24 28 52 14 82 -13 28
-14 28 -121 31 l-107 3 0 -66z"/>
<path d="M4737 3103 c-4 -3 -7 -33 -7 -65 l0 -58 98 0 c111 0 132 11 132 67 0
51 -25 63 -127 63 -49 0 -93 -3 -96 -7z"/>
<path d="M2450 3050 c-127 -23 -214 -103 -253 -230 -21 -68 -23 -112 -7 -170
26 -97 101 -184 198 -231 55 -26 164 -30 224 -8 75 28 147 90 178 154 75 152
54 303 -56 405 -77 71 -178 100 -284 80z"/>
<path d="M2161 2764 c0 -11 3 -14 6 -6 3 7 2 16 -1 19 -3 4 -6 -2 -5 -13z"/>
<path d="M5314 1718 c9 -5 23 -5 32 0 12 6 7 9 -16 9 -23 0 -28 -3 -16 -9z"/>
<path d="M5167 1653 c-4 -3 -7 -11 -7 -17 0 -6 5 -5 12 2 6 6 9 14 7 17 -3 3
-9 2 -12 -2z"/>
<path d="M5906 1610 c7 -7 19 -7 35 -1 23 9 22 10 -10 10 -24 1 -32 -2 -25 -9z"/>
<path d="M2122 1023 c2 -12 12 -18 28 -18 16 0 26 6 28 18 3 13 -3 17 -28 17
-25 0 -31 -4 -28 -17z"/>
<path d="M2530 1013 c0 -6 -3 -18 -6 -27 -4 -12 0 -16 15 -16 12 0 21 4 21 8
0 13 -29 48 -30 35z"/>
<path d="M3080 1020 c0 -18 5 -21 33 -18 20 2 32 8 32 18 0 10 -12 16 -32 18
-28 3 -33 0 -33 -18z"/>
<path d="M5372 1023 c2 -12 14 -19 36 -21 27 -3 32 0 32 17 0 17 -6 21 -36 21
-28 0 -35 -3 -32 -17z"/>
<path d="M5782 995 c-16 -34 -15 -35 8 -35 21 0 27 24 12 48 -6 9 -12 5 -20
-13z"/>
<path d="M6340 1020 c0 -18 5 -21 38 -18 25 2 37 8 37 18 0 10 -12 16 -37 18
-33 3 -38 0 -38 -18z"/>
</g>
</svg>
